<svg width="16" height="16" viewBox="0 0 16 16" fill="none" xmlns="http://www.w3.org/2000/svg">
<g clip-path="url(#clip0_122_114)">
<path d="M12.3917 8.25025C12.4152 10.6002 14.6157 11.3824 14.64 11.3924C14.6214 11.4474 14.2885 12.5069 13.4808 13.601C12.7826 14.547 12.0578 15.4895 10.9164 15.5092C9.79483 15.5282 9.43414 14.8925 8.15169 14.8925C6.86964 14.8925 6.46903 15.4895 5.40718 15.5282C4.30527 15.567 3.46617 14.5051 2.76218 13.5627C1.32372 11.6347 0.224376 8.11463 1.70046 5.7385C2.43371 4.5585 3.74434 3.81138 5.16676 3.79213C6.24871 3.773 7.26998 4.46688 7.93136 4.46688C8.59234 4.46688 9.8334 3.63238 11.1381 3.75488C11.6843 3.776 13.2174 3.95937 14.2019 5.29537C14.1228 5.341 12.3727 6.2855 12.3917 8.25025ZM10.2838 2.4795C10.8687 1.82313 11.2624 0.909125 11.1551 0C10.3118 0.031375 9.29216 0.520875 8.6874 1.177C8.14535 1.75787 7.67072 2.68787 7.79868 3.579C8.73864 3.6465 9.69869 3.13625 10.2838 2.4795Z" fill="black"/>
</g>
<defs>
<clipPath id="clip0_122_114">
<rect width="16" height="16" fill="white"/>
</clipPath>
</defs>
</svg>
