<svg width="20" height="14" viewBox="0 0 20 14" fill="none" xmlns="http://www.w3.org/2000/svg">
<path d="M9.625 3.9375C8.92881 3.9375 8.26113 4.21406 7.76884 4.70634C7.27656 5.19863 7 5.86631 7 6.5625C7 7.25869 7.27656 7.92637 7.76884 8.41866C8.26113 8.91094 8.92881 9.1875 9.625 9.1875C10.3212 9.1875 10.9889 8.91094 11.4812 8.41866C11.9734 7.92637 12.25 7.25869 12.25 6.5625C12.25 5.86631 11.9734 5.19863 11.4812 4.70634C10.9889 4.21406 10.3212 3.9375 9.625 3.9375ZM9.625 10.9375C8.46468 10.9375 7.35188 10.4766 6.53141 9.65609C5.71094 8.83562 5.25 7.72282 5.25 6.5625C5.25 5.40218 5.71094 4.28938 6.53141 3.46891C7.35188 2.64844 8.46468 2.1875 9.625 2.1875C10.7853 2.1875 11.8981 2.64844 12.7186 3.46891C13.5391 4.28938 14 5.40218 14 6.5625C14 7.72282 13.5391 8.83562 12.7186 9.65609C11.8981 10.4766 10.7853 10.9375 9.625 10.9375ZM9.625 0C5.25 0 1.51375 2.72125 0 6.5625C1.51375 10.4037 5.25 13.125 9.625 13.125C14 13.125 17.7363 10.4037 19.25 6.5625C17.7363 2.72125 14 0 9.625 0Z" fill="black"/>
</svg>
