<svg width="17" height="17" viewBox="0 0 17 17" fill="none" xmlns="http://www.w3.org/2000/svg">
<path d="M8.5 14.875C8.00417 14.875 7.58507 14.7038 7.24271 14.3615C6.90035 14.0191 6.72917 13.6 6.72917 13.1042C6.72917 12.6083 6.90035 12.1892 7.24271 11.8469C7.58507 11.5045 8.00417 11.3333 8.5 11.3333C8.99583 11.3333 9.41493 11.5045 9.75729 11.8469C10.0997 12.1892 10.2708 12.6083 10.2708 13.1042C10.2708 13.6 10.0997 14.0191 9.75729 14.3615C9.41493 14.7038 8.99583 14.875 8.5 14.875ZM4.49792 10.8729L3.01042 9.35C3.70694 8.65347 4.5246 8.10168 5.46337 7.69463C6.40215 7.28757 7.41436 7.08381 8.5 7.08333C9.58564 7.08286 10.5981 7.28946 11.5373 7.70313C12.4766 8.11679 13.294 8.67756 13.9896 9.38542L12.5021 10.8729C11.9826 10.3535 11.3806 9.94618 10.6958 9.65104C10.0111 9.3559 9.27917 9.20833 8.5 9.20833C7.72083 9.20833 6.98889 9.3559 6.30417 9.65104C5.61944 9.94618 5.01736 10.3535 4.49792 10.8729ZM1.4875 7.8625L0 6.375C1.08611 5.26528 2.35521 4.39757 3.80729 3.77188C5.25937 3.14618 6.82361 2.83333 8.5 2.83333C10.1764 2.83333 11.7406 3.14618 13.1927 3.77188C14.6448 4.39757 15.9139 5.26528 17 6.375L15.5125 7.8625C14.6035 6.95347 13.5499 6.24231 12.3519 5.729C11.1539 5.2157 9.86992 4.95881 8.5 4.95833C7.13008 4.95786 5.84635 5.21475 4.64879 5.729C3.45124 6.24325 2.39747 6.95442 1.4875 7.8625Z" fill="white"/>
</svg>
